<?xml version="1.0" encoding="UTF-8"?>
<svg xmlns="http://www.w3.org/2000/svg" xmlns:xlink="http://www.w3.org/1999/xlink" viewBox="0 0 192 192" width="192px" height="192px">
<g id="surface148910072">
<path style=" stroke:none;fill-rule:nonzero;fill:rgb(100%,100%,100%);fill-opacity:1;" d="M 56 6 C 28.429688 6 6 28.429688 6 56 L 6 136 C 6 163.570312 28.429688 186 56 186 L 136 186 C 163.570312 186 186 163.570312 186 136 L 186 56 C 186 28.429688 163.570312 6 136 6 Z M 56 26 L 136 26 C 152.539062 26 166 39.460938 166 56 L 166 136 C 166 152.539062 152.539062 166 136 166 L 56 166 C 39.460938 166 26 152.539062 26 136 L 26 56 C 26 39.460938 39.460938 26 56 26 Z M 146 36 C 140.476562 36 136 40.476562 136 46 C 136 51.523438 140.476562 56 146 56 C 151.523438 56 156 51.523438 156 46 C 156 40.476562 151.523438 36 146 36 Z M 96 46 C 68.429688 46 46 68.429688 46 96 C 46 123.570312 68.429688 146 96 146 C 123.570312 146 146 123.570312 146 96 C 146 68.429688 123.570312 46 96 46 Z M 96 66 C 112.539062 66 126 79.460938 126 96 C 126 112.539062 112.539062 126 96 126 C 79.460938 126 66 112.539062 66 96 C 66 79.460938 79.460938 66 96 66 Z M 96 66 "/>
</g>
</svg>
