<?xml version="1.0" encoding="UTF-8"?>
<svg xmlns="http://www.w3.org/2000/svg" xmlns:xlink="http://www.w3.org/1999/xlink" viewBox="0 0 250 250" width="250px" height="250px">
<g id="surface148655412">
<path style=" stroke:none;fill-rule:nonzero;fill:rgb(100%,100%,100%);fill-opacity:1;" d="M 125.046875 9.910156 C 61.609375 9.910156 10 61.519531 10 124.953125 C 10 188.390625 61.609375 240 125.046875 240 C 188.480469 240 240.089844 188.394531 240.089844 124.953125 C 240.089844 61.515625 188.480469 9.910156 125.046875 9.910156 Z M 173.738281 176.664062 C 172.296875 178.835938 169.914062 180.003906 167.488281 180.003906 C 166.058594 180.003906 164.613281 179.601562 163.335938 178.746094 C 150.96875 170.5 130 165 112.5 165.003906 C 93.929688 165.015625 80.011719 169.574219 79.871094 169.621094 C 75.949219 170.949219 71.695312 168.808594 70.386719 164.878906 C 69.074219 160.949219 71.199219 156.699219 75.128906 155.394531 C 75.789062 155.175781 91.523438 150.019531 112.5 150.011719 C 130 150 154.339844 154.71875 171.660156 166.265625 C 175.109375 168.566406 176.039062 173.21875 173.738281 176.664062 Z M 188.699219 145.964844 C 187.074219 148.574219 184.269531 150.011719 181.40625 150.011719 C 179.855469 150.011719 178.285156 149.59375 176.875 148.710938 C 154.453125 134.738281 131.414062 131.785156 111.566406 131.960938 C 89.15625 132.160156 71.234375 136.433594 70.929688 136.523438 C 66.394531 137.816406 61.625 135.164062 60.328125 130.609375 C 59.035156 126.046875 61.691406 121.300781 66.25 120.011719 C 67.636719 119.613281 85.519531 115.214844 110.003906 115.011719 C 132.328125 114.824219 160.148438 118.058594 185.960938 134.140625 C 189.976562 136.640625 191.210938 141.941406 188.699219 145.964844 Z M 203.625 110.066406 C 201.761719 113.234375 198.421875 115 194.988281 115 C 193.269531 115 191.53125 114.554688 189.933594 113.625 C 163.804688 98.285156 132.035156 95.03125 109.984375 95 C 109.878906 95 109.773438 95 109.671875 95 C 83.003906 95 62.46875 99.691406 62.265625 99.738281 C 56.875 100.976562 51.511719 97.644531 50.261719 92.265625 C 49.011719 86.890625 52.34375 81.519531 57.71875 80.265625 C 58.644531 80.050781 80.585938 75 109.671875 75 C 109.785156 75 109.898438 75 110.015625 75 C 134.539062 75.035156 170.070312 78.765625 200.066406 96.375 C 204.824219 99.175781 206.421875 105.304688 203.625 110.066406 Z M 203.625 110.066406 "/>
</g>
</svg>
